# xmcd
#
# Track frame offsets:
#	150
#	14402
#	24904
#	35856
#	46208
#	60535
#	72312
#	86939
#	101341
#	114993
#	128195
#	142822
#	155424
#	168026
#	179878
#	191280
#	204557
#	218734
#	230211
#	241238
#	252190
#	262392
#	274769
#	286996
#	300723
#
# Disc length: 4166
#
# Revision: 2
# Processed by: cddbd v1.5.1PL0 Copyright (c) Steve Scherf et al.
# Submitted via: EasyCDDAExtractor 5.0.6
# Normalized: r1:DSETVAR1
#
DISCID=6d104419
DTITLE=Various Artist - Best Of Peggy March
DYEAR=1900
DGENRE=Pop
TTITLE0=Peggy March - In der Carnaby Street
TTITLE1=Peggy March - Adio Adio
TTITLE2=Peggy March - Die Maschen der Männder
TTITLE3=Peggy March - Happy Birthday
TTITLE4=Peggy March - Vor dem Buckingham Palast
TTITLE5=Peggy March - Puppe mit dem goldnen Haar
TTITLE6=Peggy March - Die Entdeckung des Jahrhunderts
TTITLE7=Peggy March - Wie ein Tiger
TTITLE8=Peggy March - Doktor
TTITLE9=Peggy March - Einmal verliebt, immer verliebt
TTITLE10=Peggy March - Ich verlieb mich noch heute in Dich
TTITLE11=Peggy March - Mit 17 hat man noch Träume
TTITLE12=Peggy March - Tausend Jahre und noch mehr
TTITLE13=Peggy March - Weil die Liebe...
TTITLE14=Peggy March - Memories of Heidelberg
TTITLE15=Peggy March - Telegramm aus Tennessee
TTITLE16=Peggy March - 1969
TTITLE17=Peggy March - Male nicht den Teufel an die Wand
TTITLE18=Peggy March - Die schönen Stunden
TTITLE19=Peggy March - Du bist Musik für mich
TTITLE20=Peggy March - Hey
TTITLE21=Peggy March - Happy End im Hofbräuhaus
TTITLE22=Peggy March - Romeo und Julia
TTITLE23=Peggy March - Das ist Zauberei
TTITLE24=Penny Song
EXTD=
EXTT0=
EXTT1=
EXTT2=
EXTT3=
EXTT4=
EXTT5=
EXTT6=
EXTT7=
EXTT8=
EXTT9=
EXTT10=
EXTT11=
EXTT12=
EXTT13=
EXTT14=
EXTT15=
EXTT16=
EXTT17=
EXTT18=
EXTT19=
EXTT20=
EXTT21=
EXTT22=
EXTT23=
EXTT24=
PLAYORDER=
